<?xml version="1.0" encoding="utf-8"?>
<!-- Generator: Adobe Illustrator 23.0.2, SVG Export Plug-In . SVG Version: 6.00 Build 0)  -->
<svg version="1.1" id="Layer_1" xmlns="http://www.w3.org/2000/svg" xmlns:xlink="http://www.w3.org/1999/xlink" x="0px" y="0px"
	 viewBox="0 0 124.5533 268.416" enable-background="new 0 0 124.5533 268.416" xml:space="preserve">
<g>
	<path d="M55.388,85.3095c12.0987,2.8174,24.1924-4.708,27.0088-16.8076c2.8184-12.0996-4.707-24.1933-16.8056-27.0097
		c-12.0996-2.8184-24.1944,4.707-27.0118,16.8066C35.7621,70.3984,43.2875,82.4922,55.388,85.3095z"/>
	<path d="M96.6058,98.3115c-4.6172-3.0039-9.6152-5.1738-15.1064-5.5205c-0.545-0.1221-1.1104-0.1914-1.6924-0.1914H42.932
		c-0.5762-0.1973-1.9795-0.7305-3.8828-1.8301c-3.7803-2.1924-9.3721-6.4561-14.1719-14.7881
		c-4.7832-8.3398-8.8643-20.9189-8.875-40.1387c-0.001-0.9336,0.0078-1.8828,0.0283-2.8447h13.8526V0H8.8841v21.7959
		c-0.1416-0.0137-0.2802-0.0332-0.4238-0.0391c-4.4141-0.1826-8.1416,3.2471-8.3242,7.6611
		c-0.0928,2.2002-0.1358,4.3448-0.1358,6.4248c-0.0566,29.5498,8.92,48.0147,18.6368,58.6651
		c5.4179,5.9697,10.875,9.4492,14.8066,11.4043v43.8691v18.9395v87.332c0,6.8291,5.5352,12.3633,12.3633,12.3633
		s12.3633-5.5342,12.3633-12.3633v-79.6045h4.6367v79.6045c0,6.8291,5.5351,12.3633,12.3633,12.3633
		c6.8281,0,12.3632-5.5342,12.3632-12.3633v-85.9746c-0.039-0.0156-0.081-0.0274-0.1201-0.044
		c-7.7519-3.2783-13.205-10.9599-13.205-19.8916c0-4.5957,1.455-8.8525,3.9121-12.3574c2.3427-3.3418,5.5986-5.9951,9.413-7.582
		v-18.7002c0.0967,0.0625,0.1915,0.1152,0.2891,0.1807c4.8926,3.1806,10.3623,9.0097,14.3106,15.7275
		c0.5127,0.8613,0.999,1.7363,1.4589,2.6221c8.0557,3.1357,13.7891,10.957,13.7891,20.1093c0,8.8584-5.3672,16.4805-13.0176,19.8028
		c0.4658,0.6777,1.0401,1.2969,1.7285,1.8232c1.4512,1.1114,3.1622,1.6485,4.8584,1.6485c2.4053,0.0009,4.7832-1.0801,6.3594-3.1387
		c5.125-6.669,7.2695-14.5791,7.2432-22.1914c-0.083-13.6778-6.211-26.7637-14.2764-36.9932
		C106.2054,105.9853,101.5951,101.5966,96.6058,98.3115z"/>
	<path d="M104.9349,132.8232c-2.7305-1.4443-5.8379-2.2695-9.1406-2.2695c-2.9561,0-5.7481,0.6738-8.2608,1.8457
		c-2.9521,1.3779-5.497,3.4648-7.4267,6.0478c-2.4375,3.2666-3.8994,7.3047-3.8994,11.6934c0,7.8623,4.6426,14.624,11.3261,17.7422
		c2.5127,1.1719,5.3047,1.8457,8.2608,1.8457c2.7178,0,5.3047-0.5547,7.6572-1.5547c7.0127-2.9814,11.9297-9.9326,11.9297-18.0332
		C115.3812,142.6259,111.1449,136.1084,104.9349,132.8232z"/>
</g>
</svg>
