<svg xmlns="http://www.w3.org/2000/svg" viewBox="0 0 64 64"><g id="Layer_36" data-name="Layer 36"><path d="M16.38,34.74A15.68,15.68,0,0,0,30.89,51.83a.23.23,0,0,0,.2,0c8.61.81,16.81-6.92,16.59-15.56a.19.19,0,0,0,0-.08h0a1,1,0,0,0,0-.17,15.71,15.71,0,0,0-1.37-6.23.49.49,0,0,0-.13-.28C39.4,15.18,18,18.94,16.4,34.61A.51.51,0,0,0,16.38,34.74Zm15.06,2a12.33,12.33,0,0,1-3.17,6,12.36,12.36,0,0,1-10.67-8,14.38,14.38,0,0,1,3.49-8A13.61,13.61,0,0,0,31.44,36.72Zm15-1.68a13.57,13.57,0,0,0-5.65-1.75h0A13.67,13.67,0,0,0,32,35.61a12.36,12.36,0,0,1-7.14-4.11c7.37-4,15.66-4.55,20.32-1.25A14.64,14.64,0,0,1,46.43,35ZM30.91,50.63a14.36,14.36,0,0,1-8.23-3.35,13.66,13.66,0,0,0,10-10.66,12.47,12.47,0,0,1,7.53-2.15C41.71,40.6,37.87,47.31,30.91,50.63Zm-3.8-6.89a12.47,12.47,0,0,1-5.5,2.55,14.42,14.42,0,0,1-4-8.95A13.55,13.55,0,0,0,27.11,43.74Zm15.14,2.7a14.35,14.35,0,0,1-8.82,4.17c6-3.74,9.28-10.07,8-16a12.41,12.41,0,0,1,5,1.88A14.47,14.47,0,0,1,42.25,46.44Zm0-20.5a15.48,15.48,0,0,1,1.87,2.29c-5.22-2.45-12.91-1.63-20,2.31a12.44,12.44,0,0,1-2-4.91A14.49,14.49,0,0,1,42.25,25.94Z"/><path d="M52.54,4.39h-3A2.4,2.4,0,0,0,47.1,3.32,2.18,2.18,0,0,0,44.92,5.5V8.39H34.47V5.5a2.3,2.3,0,0,0-2.75-2.18A2.19,2.19,0,0,0,29.54,5.5V8.39H19.09V5.5A2.19,2.19,0,0,0,16.9,3.32a2.44,2.44,0,0,0-2.43,1.07h-3A7.6,7.6,0,0,0,3.86,12V53.08a7.6,7.6,0,0,0,7.6,7.6H52.54a7.6,7.6,0,0,0,7.6-7.6V12A7.6,7.6,0,0,0,52.54,4.39ZM46.11,5.5c0-.88.81-1,1.55-1a1,1,0,0,1,1,1v7c0,.89-.81,1-1.55,1a1,1,0,0,1-1-1Zm-15.37,0c0-.89.8-1,1.54-1a1,1,0,0,1,1,1V9s0,0,0,0v3.48a1,1,0,0,1-1,1c-.74.06-1.51-.09-1.54-1Zm-1.2,4.09v2.89a2.3,2.3,0,0,0,2.74,2.19,2.19,2.19,0,0,0,2.19-2.19V9.59H44.92v2.89a2.3,2.3,0,0,0,2.74,2.19,2.18,2.18,0,0,0,2.18-2.19V9.59h2.7a2.4,2.4,0,0,1,2.4,2.4v4.34H9.05V12a2.41,2.41,0,0,1,2.4-2.4h2.71v2.89a2.3,2.3,0,0,0,2.74,2.19,2.19,2.19,0,0,0,2.19-2.19V9.59ZM9.05,17.53H54.94V53.08a2.4,2.4,0,0,1-2.4,2.4H11.45a2.41,2.41,0,0,1-2.4-2.4Zm6.31-12c0-.89.8-1,1.54-1a1,1,0,0,1,1,1V9a0,0,0,0,0,0,0v3.47a1,1,0,0,1-1,1c-.74.06-1.51-.1-1.54-1ZM59,53.08a6.41,6.41,0,0,1-6.41,6.4H11.46a6.41,6.41,0,0,1-6.41-6.4V12a6.41,6.41,0,0,1,6.41-6.4h2.7v2.8H11.45A3.6,3.6,0,0,0,7.85,12V53.08a3.61,3.61,0,0,0,3.6,3.6H52.54a3.6,3.6,0,0,0,3.6-3.6V16.94s0,0,0,0V12a3.6,3.6,0,0,0-3.6-3.6h-2.7V5.59h2.7A6.41,6.41,0,0,1,59,12Z"/><path d="M14.11,20.89c.89,0,.53-1.25.6-1.87a.6.6,0,0,0-.6-.6c-.89,0-.53,1.26-.6,1.87A.6.6,0,0,0,14.11,20.89Z"/><path d="M14.11,25.73c.89,0,.53-1.25.6-1.86a.6.6,0,0,0-.6-.6c-.89,0-.53,1.25-.6,1.86A.6.6,0,0,0,14.11,25.73Z"/><path d="M15.36,21.41c.38.06,1.06-.87,1.32-1.07a.59.59,0,0,0,0-.85c-.65-.62-1.28.54-1.74.89A.61.61,0,0,0,15.36,21.41Z"/><path d="M15.28,22.06c0,.89,1.25.53,1.87.6a.6.6,0,0,0,.6-.6c0-.89-1.25-.53-1.87-.6A.6.6,0,0,0,15.28,22.06Z"/><path d="M15.83,24.63a.6.6,0,0,0,.85-.85l-.89-.89a.6.6,0,0,0-.85.85Z"/><path d="M12.43,22.89l-.89.89a.61.61,0,0,0,.42,1c.38.06,1.07-.87,1.32-1.07C13.84,23.2,13,22.33,12.43,22.89Z"/><path d="M11.07,22.66h1.27a.6.6,0,0,0,0-1.2H11.07A.6.6,0,0,0,11.07,22.66Z"/><path d="M12.43,21.23a.6.6,0,0,0,.85-.85l-.89-.89c-.54-.56-1.41.31-.85.85Z"/><path d="M14.11,47.19c.89,0,.53-1.25.6-2a.6.6,0,0,0-.6-.6c-.89,0-.53,1.24-.6,2A.6.6,0,0,0,14.11,47.19Z"/><path d="M14.11,52.49c.89,0,.53-1.25.6-2a.6.6,0,0,0-.6-.6c-.89,0-.53,1.24-.6,2A.6.6,0,0,0,14.11,52.49Z"/><path d="M15.48,47.75a.65.65,0,0,0,.43-.17c.44-.55,1.59-1.18,1-1.83s-1.28.53-1.82,1A.6.6,0,0,0,15.48,47.75Z"/><path d="M17.43,47.92c-.74.07-1.95-.29-2,.6s1.24.53,2,.6A.6.6,0,0,0,17.43,47.92Z"/><path d="M15.91,49.47c-.55-.56-1.41.31-.85.85l1,1a.6.6,0,0,0,.84-.85Z"/><path d="M12.32,49.47l-1,1a.6.6,0,0,0,.42,1c.38.07,1.14-1,1.4-1.15C13.72,49.78,12.86,48.91,12.32,49.47Z"/><path d="M10.79,49.12c.74-.07,2,.29,2-.6s-1.24-.53-2-.6A.6.6,0,0,0,10.79,49.12Z"/><path d="M12.19,45.75a.6.6,0,0,0-.85.85c.26.2,1,1.21,1.4,1.15a.6.6,0,0,0,.43-1Z"/><path d="M48.85,22.59a.6.6,0,0,0,.6-.6v-1.5a.6.6,0,0,0-1.2,0V22A.6.6,0,0,0,48.85,22.59Z"/><path d="M48.85,28.3a.6.6,0,0,0,.6-.6V26.2a.6.6,0,0,0-1.2,0v1.5A.6.6,0,0,0,48.85,28.3Z"/><path d="M50.32,23.2a.6.6,0,0,0,.43-.18l1-1.05a.59.59,0,0,0,0-.85.58.58,0,0,0-.84,0L49.9,22.17A.61.61,0,0,0,50.32,23.2Z"/><path d="M50.34,24.07a.59.59,0,0,0,.6.6h1.49a.6.6,0,0,0,.6-.6.6.6,0,0,0-.6-.6H50.94A.6.6,0,0,0,50.34,24.07Z"/><path d="M51,27a.6.6,0,0,0,.84-.85l-1-1.05c-.54-.56-1.41.3-.85.84Z"/><path d="M47,25.13l-1.06,1.05a.6.6,0,0,0,.43,1c.36.08,1.21-1,1.48-1.23C48.35,25.43,47.49,24.57,47,25.13Z"/><path d="M45.27,24.67h1.49a.6.6,0,0,0,.6-.6.6.6,0,0,0-.6-.6H45.27A.6.6,0,0,0,45.27,24.67Z"/><path d="M47,23a.6.6,0,0,0,.85-.85l-1.06-1.05c-.54-.56-1.41.31-.85.85Z"/><path d="M50.23,45.44a.6.6,0,0,0,.6-.6V43.31a.6.6,0,0,0-.6-.6.6.6,0,0,0-.6.6v1.53A.6.6,0,0,0,50.23,45.44Z"/><path d="M50.23,51.3a.6.6,0,0,0,.6-.6V49.17a.6.6,0,0,0-.6-.6.6.6,0,0,0-.6.6V50.7A.59.59,0,0,0,50.23,51.3Z"/><path d="M52.4,44,51.32,45a.6.6,0,0,0,.85.85l1.08-1.08C53.81,44.27,52.94,43.4,52.4,44Z"/><path d="M51.77,47a.6.6,0,0,0,.6.6H53.9a.6.6,0,0,0,.6-.6.6.6,0,0,0-.6-.6H52.37A.6.6,0,0,0,51.77,47Z"/><path d="M52.17,48.08c-.55-.56-1.41.3-.85.84L52.4,50a.6.6,0,0,0,.85-.85Z"/><path d="M48.29,48.08,47.2,49.16a.6.6,0,0,0,.43,1c.36.08,1.24-1.06,1.5-1.26A.59.59,0,0,0,48.29,48.08Z"/><path d="M48.68,47a.6.6,0,0,0-.6-.6H46.55a.6.6,0,0,0-.6.6.6.6,0,0,0,.6.6h1.53A.6.6,0,0,0,48.68,47Z"/><path d="M47.2,44a.61.61,0,0,0,0,.85l1.09,1.08a.58.58,0,0,0,.84,0,.59.59,0,0,0,0-.85L48.05,44A.61.61,0,0,0,47.2,44Z"/></g></svg>