<?xml version="1.0" encoding="utf-8"?>
<!-- Generator: Adobe Illustrator 26.0.2, SVG Export Plug-In . SVG Version: 6.00 Build 0)  -->
<svg version="1.1" id="Layer_3" xmlns="http://www.w3.org/2000/svg" xmlns:xlink="http://www.w3.org/1999/xlink" x="0px" y="0px"
	 viewBox="0 0 64 64" style="enable-background:new 0 0 64 64;" xml:space="preserve">
<g>
	<path d="M59,7h-2V6c0-1.654-1.346-3-3-3s-3,1.346-3,3v1h-4V6c0-1.654-1.346-3-3-3s-3,1.346-3,3v1H23V6c0-1.654-1.346-3-3-3
		s-3,1.346-3,3v1h-4V6c0-1.654-1.346-3-3-3S7,4.346,7,6v1H5c-2.206,0-4,1.794-4,4v46c0,2.206,1.794,4,4,4h54c2.206,0,4-1.794,4-4V11
		C63,8.794,61.206,7,59,7z M53,6c0-0.551,0.449-1,1-1s1,0.449,1,1v6c0,0.551-0.449,1-1,1s-1-0.449-1-1V6z M43,6c0-0.551,0.449-1,1-1
		s1,0.449,1,1v6c0,0.551-0.449,1-1,1s-1-0.449-1-1V6z M19,6c0-0.551,0.449-1,1-1s1,0.449,1,1v6c0,0.551-0.449,1-1,1s-1-0.449-1-1V6z
		 M9,6c0-0.551,0.449-1,1-1s1,0.449,1,1v6c0,0.551-0.449,1-1,1s-1-0.449-1-1V6z M5,9h2v3c0,1.654,1.346,3,3,3s3-1.346,3-3V9h4v3
		c0,1.654,1.346,3,3,3s3-1.346,3-3V9h18v3c0,1.654,1.346,3,3,3s3-1.346,3-3V9h4v3c0,1.654,1.346,3,3,3s3-1.346,3-3V9h2
		c1.103,0,2,0.897,2,2v8H3v-8C3,9.897,3.897,9,5,9z M23,31h8v8h-8V31z M21,39h-8v-8h8V39z M31,41v8h-8v-8H31z M33,41h8v8h-8V41z
		 M33,39v-8h8v8H33z M43,31h8v8h-8V31z M43,29v-8h8v8H43z M41,29h-8v-8h8V29z M31,29h-8v-8h8V29z M21,29h-8v-8h8V29z M11,29H3v-8h8
		V29z M11,31v8H3v-8H11z M11,41v8H3v-8H11z M13,41h8v8h-8V41z M21,51v8h-8v-8H21z M23,51h8v8h-8V51z M33,51h8v8h-8V51z M43,51h8v8
		h-8V51z M43,49v-8h8v8H43z M53,41h8v8h-8V41z M53,39v-8h8v8H53z M53,29v-8h8v8H53z M3,57v-6h8v8H5C3.897,59,3,58.103,3,57z M59,59
		h-6v-8h8v6C61,58.103,60.103,59,59,59z"/>
	<rect x="4.172" y="24" transform="matrix(0.7071 -0.7071 0.7071 0.7071 -15.6274 12.2721)" width="5.657" height="2"/>
	<rect x="44.172" y="24" transform="matrix(0.7071 -0.7071 0.7071 0.7071 -3.9117 40.5564)" width="5.657" height="2"/>
	<rect x="44.172" y="34" transform="matrix(0.7071 -0.7071 0.7071 0.7071 -10.9828 43.4853)" width="5.657" height="2"/>
	<rect x="54.172" y="34" transform="matrix(0.7071 -0.7071 0.7071 0.7071 -8.0538 50.5564)" width="5.657" height="2"/>
	<rect x="34.172" y="34" transform="matrix(0.7071 -0.7071 0.7071 0.7071 -13.9117 36.4142)" width="5.657" height="2"/>
	<rect x="34.172" y="44" transform="matrix(0.7071 -0.7071 0.7071 0.7071 -20.9828 39.3431)" width="5.657" height="2"/>
	<rect x="34.172" y="54" transform="matrix(0.7071 -0.7071 0.7071 0.7071 -28.0538 42.2721)" width="5.657" height="2"/>
	<rect x="24.172" y="54" transform="matrix(0.7071 -0.7071 0.7071 0.7071 -30.9828 35.201)" width="5.657" height="2"/>
	<polygon points="14.293,26.293 15.707,27.707 17,26.414 18.293,27.707 19.707,26.293 18.414,25 19.707,23.707 18.293,22.293 
		17,23.586 15.707,22.293 14.293,23.707 15.586,25 	"/>
	<polygon points="24.293,26.293 25.707,27.707 27,26.414 28.293,27.707 29.707,26.293 28.414,25 29.707,23.707 28.293,22.293 
		27,23.586 25.707,22.293 24.293,23.707 25.586,25 	"/>
	<polygon points="29.707,33.707 28.293,32.293 27,33.586 25.707,32.293 24.293,33.707 25.586,35 24.293,36.293 25.707,37.707 
		27,36.414 28.293,37.707 29.707,36.293 28.414,35 	"/>
	<polygon points="24.293,46.293 25.707,47.707 27,46.414 28.293,47.707 29.707,46.293 28.414,45 29.707,43.707 28.293,42.293 
		27,43.586 25.707,42.293 24.293,43.707 25.586,45 	"/>
	<polygon points="4.293,46.293 5.707,47.707 7,46.414 8.293,47.707 9.707,46.293 8.414,45 9.707,43.707 8.293,42.293 7,43.586 
		5.707,42.293 4.293,43.707 5.586,45 	"/>
	<polygon points="49.707,43.707 48.293,42.293 47,43.586 45.707,42.293 44.293,43.707 45.586,45 44.293,46.293 45.707,47.707 
		47,46.414 48.293,47.707 49.707,46.293 48.414,45 	"/>
	<polygon points="34.293,26.293 35.707,27.707 37,26.414 38.293,27.707 39.707,26.293 38.414,25 39.707,23.707 38.293,22.293 
		37,23.586 35.707,22.293 34.293,23.707 35.586,25 	"/>
</g>
</svg>
