<?xml version="1.0" encoding="UTF-8" standalone="no"?> <svg width="64" height="64" viewBox="0 0 64 64" fill="none" xmlns="http://www.w3.org/2000/svg">
<path d="M60 13H4C3.73478 13 3.48043 13.1054 3.29289 13.2929C3.10536 13.4804 3 13.7348 3 14V50C3 50.2652 3.10536 50.5196 3.29289 50.7071C3.48043 50.8946 3.73478 51 4 51H60C60.2652 51 60.5196 50.8946 60.7071 50.7071C60.8946 50.5196 61 50.2652 61 50V14C61 13.7348 60.8946 13.4804 60.7071 13.2929C60.5196 13.1054 60.2652 13 60 13ZM59 26H56C55.7348 26 55.4804 26.1054 55.2929 26.2929C55.1054 26.4804 55 26.7348 55 27V37C55 37.2652 55.1054 37.5196 55.2929 37.7071C55.4804 37.8946 55.7348 38 56 38H59V41H52V23H59V26ZM59 28V36H57V28H59ZM31 37.91C29.6094 37.6664 28.3493 36.9402 27.4412 35.8593C26.5331 34.7783 26.0353 33.4118 26.0353 32C26.0353 30.5882 26.5331 29.2217 27.4412 28.1407C28.3493 27.0598 29.6094 26.3336 31 26.09V37.91ZM33 26.09C34.3906 26.3336 35.6507 27.0598 36.5588 28.1407C37.4669 29.2217 37.9647 30.5882 37.9647 32C37.9647 33.4118 37.4669 34.7783 36.5588 35.8593C35.6507 36.9402 34.3906 37.6664 33 37.91V26.09ZM5 28H7V36H5V28ZM5 38H8C8.26522 38 8.51957 37.8946 8.70711 37.7071C8.89464 37.5196 9 37.2652 9 37V27C9 26.7348 8.89464 26.4804 8.70711 26.2929C8.51957 26.1054 8.26522 26 8 26H5V23H12V41H5V38ZM5 43H13C13.2652 43 13.5196 42.8946 13.7071 42.7071C13.8946 42.5196 14 42.2652 14 42V38.3C15.1835 37.7268 16.1816 36.8318 16.88 35.7176C17.5784 34.6034 17.9488 33.315 17.9488 32C17.9488 30.685 17.5784 29.3966 16.88 28.2824C16.1816 27.1682 15.1835 26.2732 14 25.7V22C14 21.7348 13.8946 21.4804 13.7071 21.2929C13.5196 21.1054 13.2652 21 13 21H5V15H31V24.07C29.0781 24.3259 27.3146 25.2711 26.0374 26.7297C24.7601 28.1883 24.056 30.0612 24.056 32C24.056 33.9388 24.7601 35.8117 26.0374 37.2703C27.3146 38.7289 29.0781 39.6741 31 39.93V49H5V43ZM14 28C14.621 28.4657 15.125 29.0697 15.4721 29.7639C15.8193 30.4582 16 31.2238 16 32C16 32.7762 15.8193 33.5418 15.4721 34.2361C15.125 34.9303 14.621 35.5343 14 36V28ZM33 49V39.93C34.9219 39.6741 36.6854 38.7289 37.9627 37.2703C39.2399 35.8117 39.944 33.9388 39.944 32C39.944 30.0612 39.2399 28.1883 37.9627 26.7297C36.6854 25.2711 34.9219 24.3259 33 24.07V15H59V21H51C50.7348 21 50.4804 21.1054 50.2929 21.2929C50.1054 21.4804 50 21.7348 50 22V25.7C48.8165 26.2732 47.8184 27.1682 47.12 28.2824C46.4216 29.3966 46.0512 30.685 46.0512 32C46.0512 33.315 46.4216 34.6034 47.12 35.7176C47.8184 36.8318 48.8165 37.7268 50 38.3V42C50 42.2652 50.1054 42.5196 50.2929 42.7071C50.4804 42.8946 50.7348 43 51 43H59V49H33ZM50 36C49.379 35.5343 48.875 34.9303 48.5279 34.2361C48.1807 33.5418 48 32.7762 48 32C48 31.2238 48.1807 30.4582 48.5279 29.7639C48.875 29.0697 49.379 28.4657 50 28V36Z" fill="black"/>
</svg>
