<?xml version="1.0" encoding="UTF-8" standalone="no"?> <svg id="Layer_1" data-name="Layer 1" xmlns="http://www.w3.org/2000/svg" xmlns:xlink="http://www.w3.org/1999/xlink" viewBox="0 0 110 110"><defs><style>.cls-1{fill:url(#linear-gradient);}</style><linearGradient id="linear-gradient" x1="55" y1="7.31" x2="55" y2="102.68" gradientUnits="userSpaceOnUse"><stop offset="0" stop-color="#dd1200"/><stop offset="1" stop-color="#fba300"/></linearGradient></defs><path class="cls-1" d="M15.87,102.68H64.19a8.88,8.88,0,0,0,8.87-8.87V89.49A11.92,11.92,0,0,0,84,77.62V56.87l6.47-6.47,2.67,2.68a5.79,5.79,0,0,0,8.19-8.19l-3.38-3.37a1,1,0,0,0-.71-.3,1,1,0,0,0-.71.29L84,54V36.88h3.78a5.79,5.79,0,0,0,0-11.58H83a.9.9,0,0,0-.4.09,1,1,0,0,0-.61.92V77.62a9.94,9.94,0,0,1-8.92,9.87V16.19a8.88,8.88,0,0,0-8.87-8.88H15.87A8.88,8.88,0,0,0,7,16.19V93.81A8.88,8.88,0,0,0,15.87,102.68Zm81.35-59,2.67,2.67a3.78,3.78,0,0,1,0,5.35,3.77,3.77,0,0,1-5.36,0L91.86,49ZM84,27.3h3.77a3.79,3.79,0,0,1,3.79,3.79,3.86,3.86,0,0,1-1.11,2.68,3.78,3.78,0,0,1-2.68,1.11H84ZM9,16.19a6.88,6.88,0,0,1,6.87-6.88H64.19a6.88,6.88,0,0,1,6.87,6.88V93.81a6.88,6.88,0,0,1-6.87,6.87H15.87A6.88,6.88,0,0,1,9,93.81ZM20,61.58H60.06a4.45,4.45,0,0,0,4.45-4.45V20.32a4.46,4.46,0,0,0-4.45-4.45H20a4.45,4.45,0,0,0-4.45,4.45V57.13A4.45,4.45,0,0,0,20,61.58ZM17.56,20.32A2.45,2.45,0,0,1,20,17.87H60.06a2.45,2.45,0,0,1,2.45,2.45V57.13a2.45,2.45,0,0,1-2.45,2.45H20a2.45,2.45,0,0,1-2.45-2.45Zm20.21,58.2L23.89,71.58a3.56,3.56,0,0,0-5.16,3.19V88.65a3.56,3.56,0,0,0,5.16,3.18l13.88-6.94a3.56,3.56,0,0,0,0-6.37Zm-.9,4.58L23,90A1.53,1.53,0,0,1,21.47,90a1.55,1.55,0,0,1-.74-1.33V74.77a1.53,1.53,0,0,1,.74-1.33,1.56,1.56,0,0,1,.82-.24,1.48,1.48,0,0,1,.7.17l13.88,6.94a1.55,1.55,0,0,1,0,2.79Zm15-9.37v16a1,1,0,0,1-2,0v-16a1,1,0,0,1,2,0Zm9.45,0v16a1,1,0,0,1-2,0v-16a1,1,0,1,1,2,0ZM27.67,53.88a9.12,9.12,0,0,0,3.1-.57,7.4,7.4,0,0,0,4.29-3.45,3.32,3.32,0,0,0,.31-1.57s0-.09,0-.14V34.39H54.72v5.12a7.67,7.67,0,0,0-5.43.13A7.37,7.37,0,0,0,45,43.09a3,3,0,0,0-.15,2.39c.54,1.41,2.16,2.2,4.16,2.2a9,9,0,0,0,3.09-.58c2.81-1,4.67-3,4.61-4.94,0,0,0,0,0,0V26.85A2.78,2.78,0,0,0,54,24.08H36.17a2.77,2.77,0,0,0-2.77,2.77V45.71a7.77,7.77,0,0,0-5.45.12,7.46,7.46,0,0,0-4.29,3.46,3.08,3.08,0,0,0-.14,2.39C24.06,53.09,25.68,53.88,27.67,53.88Zm23.75-8.66c-2.27.83-4.36.45-4.7-.46a1.1,1.1,0,0,1,.1-.83A5.53,5.53,0,0,1,50,41.52a7.52,7.52,0,0,1,2.46-.45c1.17,0,2,.34,2.23.87a2,2,0,0,1,.06.27C54.77,43.07,53.54,44.46,51.42,45.22Zm-16-18.37a.76.76,0,0,1,.77-.77H54a.77.77,0,0,1,.77.77v5.54H35.4ZM25.48,50.12a5.69,5.69,0,0,1,3.15-2.41,7.34,7.34,0,0,1,2.44-.44c1.18,0,2.06.35,2.27.89a1.13,1.13,0,0,1-.1.86,5.57,5.57,0,0,1-3.15,2.41c-2.28.82-4.36.44-4.7-.46A1.1,1.1,0,0,1,25.48,50.12Z"/></svg>