<?xml version="1.0" encoding="utf-8"?>
<!-- Generator: Adobe Illustrator 23.0.2, SVG Export Plug-In . SVG Version: 6.00 Build 0)  -->
<svg version="1.1" id="Layer_1" xmlns="http://www.w3.org/2000/svg" xmlns:xlink="http://www.w3.org/1999/xlink" x="0px" y="0px"
	 viewBox="0 0 125.4254 237.1826" enable-background="new 0 0 125.4254 237.1826" xml:space="preserve">
<g>
	<path d="M8.5704,146.4258c0.1572,0,0.3159-0.0044,0.4746-0.0137c4.4106-0.2578,7.7769-4.043,7.519-8.4536
		c-2.0556-35.1395,1.9263-53.8706,6.3967-63.1678v91.2258h24.7285v-31.4688h4.6348v31.4688h24.7285v-91.223
		c4.4703,9.298,8.4517,28.0287,6.3963,63.165c-0.2578,4.4106,3.1084,8.1958,7.519,8.4536c0.1592,0.0093,0.3174,0.0137,0.4746,0.0137
		c4.2046,0,7.7305-3.2813,7.979-7.5327c2.4717-42.2476-2.8125-69.811-15.7056-81.9248c-5.6005-5.2626-11.0723-6.1751-13.8927-6.2449
		c-0.1658-0.0106-0.3307-0.0252-0.4992-0.0252h-6.3157c-1.9224,4.9442-7.0095,8.485-13.0015,8.485
		c-5.992,0-11.0792-3.5409-13.0015-8.485h-6.3161c-0.1724,0-0.3411,0.0147-0.5106,0.0258
		c-2.8229,0.0718-8.2888,0.9877-13.8826,6.2433C3.4039,69.0811-1.8803,96.6445,0.5914,138.8931
		C0.8399,143.145,4.3653,146.4263,8.5704,146.4258z M53.4649,98.6104c1.0869,0.627,2.5918,1.0449,4.0547,1.0449
		c2.6328,0,4.0957-1.6299,4.0957-3.9287c0-3.0088-2.2988-4.3047-5.0996-4.3047h-0.752v-4.0122h0.543
		c2.0068-0.0415,4.5977-0.8774,4.5977-3.5107c0-1.9644-1.2539-3.1343-3.1758-3.1343c-1.2129,0-2.4248,0.4595-3.4277,1.0864
		l-0.71-4.1372c1.1279-0.7109,3.3428-1.4214,5.5996-1.4214c4.7646,0,7.1475,3.0928,7.1475,6.562
		c0,2.7163-1.5049,4.9731-3.8867,6.1016v0.0835c2.6328,0.8779,4.6387,3.2183,4.6387,6.896c0,4.1377-3.1768,8.1919-9.0693,8.1919
		c-2.2148,0-4.1377-0.5435-5.3496-1.2119L53.4649,98.6104z M41.5098,76.2925c5.9346,0,7.8574,3.9707,7.8574,7.8574
		c0,5.0986-3.1768,9.1948-6.3115,12.8306l-1.6299,1.9229v0.0835h8.3174v4.8062H34.8643v-3.6777l2.7168-3.4692
		c3.5107-4.4717,6.3945-8.1914,6.3945-12.0781c0-2.1733-1.2119-3.7197-3.4688-3.7197c-1.7139,0-3.0928,0.7524-4.0957,1.3794
		l-0.9619-4.2632C36.7032,77.1704,39.044,76.2925,41.5098,76.2925z"/>
	<path d="M22.9607,224.8193c0,6.8301,5.537,12.3633,12.3633,12.3633c6.8281,0,12.3652-5.5332,12.3652-12.3633v-54.8027H22.9607
		V224.8193z"/>
	<path d="M52.324,224.8193c0,6.8301,5.5371,12.3633,12.3632,12.3633c6.8282,0,12.3653-5.5332,12.3653-12.3633v-54.8027H52.324
		V224.8193z"/>
	<path d="M62.6335,41.1244C68.592,37.077,72.5066,30.2463,72.5066,22.5c0-12.4268-10.0723-22.5-22.5-22.5
		c-12.4258,0-22.5,10.0732-22.5,22.5c0,7.7461,3.9152,14.5767,9.8735,18.6241C40.9805,43.5698,45.3263,45,50.0066,45
		C54.6874,45,59.0333,43.5699,62.6335,41.1244z"/>
	<circle cx="105.4254" cy="217.1826" r="20"/>
</g>
</svg>
