<?xml version="1.0" encoding="UTF-8"?>
<!DOCTYPE svg PUBLIC "-//W3C//DTD SVG 1.1//EN" "http://www.w3.org/Graphics/SVG/1.1/DTD/svg11.dtd">
<!-- Creator: CorelDRAW -->
<svg xmlns="http://www.w3.org/2000/svg" xml:space="preserve" width="1.70666in" height="1.70666in" version="1.1" style="shape-rendering:geometricPrecision; text-rendering:geometricPrecision; image-rendering:optimizeQuality; fill-rule:evenodd; clip-rule:evenodd"
viewBox="0 0 1707 1707"
 xmlns:xlink="http://www.w3.org/1999/xlink">
 <defs>
  <style type="text/css">
   <![CDATA[
    .fil0 {fill:black}
   ]]>
  </style>
 </defs>
 <g id="Layer_x0020_1">
  <metadata id="CorelCorpID_0Corel-Layer"/>
  <g id="_380402128">
   <g>
    <path class="fil0" d="M1625 1226l-1543 0c-45,0 -82,-38 -82,-82l0 -1010c0,-44 37,-82 82,-82l1543 0c44,0 82,36 82,82l0 1011c-1,45 -38,81 -82,81zm-1543 -1125c-18,0 -34,15 -34,33l0 1011c0,18 16,34 34,34l1543 0c18,0 33,-16 33,-34l0 -1011c0,-18 -15,-33 -33,-33l-1543 0z"/>
   </g>
   <g>
    <path class="fil0" d="M1582 1126l-1457 0c-14,0 -25,-11 -25,-25l0 -924c0,-14 11,-25 25,-25l1457 0c14,0 25,11 25,25l0 924c-1,14 -12,25 -25,25zm-1434 -49l1409 0 0 -876 -1409 0 0 876z"/>
   </g>
   <g>
    <path class="fil0" d="M1180 1654l-652 0c-14,0 -25,-11 -25,-25l0 -120c0,-43 43,-78 99,-78l93 0 0 -230c0,-14 11,-25 24,-25 14,0 25,11 25,25l0 255c0,14 -11,25 -25,25l-117 0c-28,0 -50,15 -50,29l0 97 603 0 0 -97c0,-14 -21,-29 -50,-29l-118 0c-14,0 -25,-11 -25,-25l0 -255c0,-14 11,-25 25,-25 14,0 25,11 25,25l0 231 93 0c56,0 99,34 99,78l0 121c0,14 -12,23 -24,23z"/>
   </g>
   <g>
    <path class="fil0" d="M987 1481l-268 0c-13,0 -24,-11 -24,-25 0,-14 11,-25 24,-25l270 0c13,0 25,11 25,25 0,14 -13,25 -27,25z"/>
   </g>
   <g>
    <path class="fil0" d="M1292 952c-14,0 -25,-11 -25,-24l0 -518 -68 68c-9,10 -25,10 -34,0 -10,-10 -10,-25 0,-34l109 -110c7,-7 18,-10 27,-6 9,5 15,13 15,23l0 575c0,15 -10,26 -24,26z"/>
   </g>
   <g>
    <path class="fil0" d="M1399 952l-215 0c-14,0 -25,-11 -25,-24 0,-14 11,-25 25,-25l215 0c14,0 25,11 25,25 0,13 -11,24 -25,24z"/>
   </g>
   <g>
    <path class="fil0" d="M654 952l-346 0c-14,0 -25,-11 -25,-24 0,-14 11,-25 25,-25l321 0 0 -529 -321 0c-14,0 -25,-11 -25,-25 0,-14 11,-25 25,-25l346 0c14,0 25,11 25,25l0 577c-1,15 -11,26 -25,26z"/>
   </g>
   <g>
    <path class="fil0" d="M654 664l-346 0c-14,0 -25,-11 -25,-25 0,-14 11,-25 25,-25l346 0c14,0 25,11 25,25 0,14 -11,25 -25,25z"/>
   </g>
   <g>
    <path class="fil0" d="M853 588c-14,0 -25,-11 -25,-25l0 -74c0,-14 11,-25 25,-25 14,0 25,11 25,25l0 74c0,14 -11,25 -25,25z"/>
   </g>
   <g>
    <path class="fil0" d="M853 814c-14,0 -25,-11 -25,-25l0 -74c0,-14 11,-25 25,-25 14,0 25,11 25,25l0 74c0,14 -11,25 -25,25z"/>
   </g>
  </g>
 </g>
</svg>
