<?xml version="1.0" encoding="UTF-8"?>
<!DOCTYPE svg PUBLIC "-//W3C//DTD SVG 1.1//EN" "http://www.w3.org/Graphics/SVG/1.1/DTD/svg11.dtd">
<!-- Creator: CorelDRAW -->
<svg xmlns="http://www.w3.org/2000/svg" xml:space="preserve" width="1.70666in" height="1.70666in" version="1.1" style="shape-rendering:geometricPrecision; text-rendering:geometricPrecision; image-rendering:optimizeQuality; fill-rule:evenodd; clip-rule:evenodd"
viewBox="0 0 1706.66 1706.66"
 xmlns:xlink="http://www.w3.org/1999/xlink"
 xmlns:xodm="http://www.corel.com/coreldraw/odm/2003">
 <defs>
  <style type="text/css">
   <![CDATA[
    .fil9 {fill:black}
    .fil10 {fill:#00CB93}
    .fil2 {fill:#5D8AA0}
    .fil1 {fill:#6496AF}
    .fil3 {fill:#79BBBB}
    .fil8 {fill:#8CB330}
    .fil7 {fill:#9CC735}
    .fil0 {fill:#B3B3B3}
    .fil6 {fill:#CF6316}
    .fil11 {fill:#FA3C48}
    .fil5 {fill:#FBE201}
    .fil4 {fill:#FF7A1B}
   ]]>
  </style>
 </defs>
 <g id="Layer_x0020_1">
  <metadata id="CorelCorpID_0Corel-Layer"/>
  <path class="fil0" d="M798.55 322.89c-11.04,0 -20,-8.96 -20,-20l0 -131.13 40 0 0 131.15c0,11.04 -8.95,19.98 -20,19.98z"/>
  <path class="fil0" d="M1206.13 373.83c-11.04,0 -20,-8.96 -20,-20l0 -131.12 40.01 0 0 131.14c-0.01,11.02 -8.97,19.98 -20.01,19.98z"/>
  <path class="fil0" d="M390.98 416.52c-11.04,0 -20,-8.96 -20,-20l0 -131.13 39.98 0 0 131.15c0.02,11.02 -8.94,19.98 -19.98,19.98z"/>
  <path class="fil1" d="M853.33 1706.64c-413.88,0 -750.59,-197.29 -750.59,-439.8l0 -545.32c0,-24.7 35.21,-26.23 39.56,-4.57l1422.08 0c4.35,-21.65 39.56,-20.13 39.56,4.57l0 545.32c0,242.51 -336.72,439.8 -750.6,439.8z"/>
  <path class="fil2" d="M853.33 1706.64c-59.84,0 -118.05,-4.15 -173.88,-11.94l0 -227.46c0,-95.89 78,-173.9 173.89,-173.9 95.89,0 173.89,78.04 173.89,173.9l0 227.46c-55.83,7.79 -114.06,11.94 -173.9,11.94z"/>
  <path class="fil3" d="M993.9 1665.35l0 -198.11c0,-77.47 -63.09,-140.57 -140.56,-140.57 -77.49,0 -140.56,63.07 -140.56,140.57l0 198.11c46.64,5.35 93.61,7.96 140.55,7.96 46.94,0 93.92,-2.61 140.57,-7.96z"/>
  <path class="fil4" d="M853.33 1161.32c-413.88,0 -750.59,-197.29 -750.59,-439.8 0,-242.5 336.72,-439.8 750.59,-439.8 413.88,0 750.59,197.29 750.59,439.8 0.01,242.51 -336.71,439.8 -750.59,439.8z"/>
  <path class="fil5" d="M597.41 1135c-0.07,-21.32 -0.17,-41.96 -0.27,-46.24 -1.68,-68.67 -5.53,-51.6 59.55,-98.57 21.26,-15.35 44.67,17.09 23.4,32.44l-42.56 30.72c0,11.77 0.66,23.69 0.99,34.76 0.18,6.02 0.26,31.52 0.08,54.87l-0 0 -41.19 -7.99z"/>
  <path class="fil6" d="M216.35 489.15c9.59,-9 19.72,-17.78 30.37,-26.32l19.98 28.22 299.93 441.28c9.06,13.33 -0.61,31.24 -16.52,31.24 -6.4,0 -12.69,-3.07 -16.56,-8.77l-298.5 -439.18 -18.7 -26.46z"/>
  <path class="fil7" d="M1148.39 961.76c-55.6,-14.67 -122.69,-27.1 -202.05,-32.74 -0.43,0.03 -0.87,0.04 -1.3,0.04 -1.39,0 -2.75,-0.14 -4.06,-0.41 -27.72,-1.85 -56.93,-2.87 -87.64,-2.87 -30.01,0 -59.76,1.06 -89.11,3.13 -0.65,0.08 -1.31,0.13 -1.98,0.14 -0.15,0.01 -0.3,0.02 -0.45,0 -71.2,5.21 -140.04,16.42 -204.58,33.2 -1.26,0.48 -2.6,0.83 -4,1.05 -57.85,15.3 -112.2,35.09 -161.65,59.07 -6.93,3.36 -26.63,13.85 -44.57,23.52 72.03,38.63 156.91,69.15 250.41,89.08 -0.07,-21.32 -0.17,-41.96 -0.27,-46.24 -1.68,-68.67 -5.53,-51.6 59.55,-98.57 21.26,-15.35 44.67,17.09 23.4,32.44l-42.56 30.72c0,11.77 0.66,23.69 0.99,34.76 0.18,6.02 0.26,31.52 0.08,54.87 68.06,11.92 140.14,18.33 214.73,18.33 74.65,0 146.8,-6.42 214.91,-18.36 -0.2,-20.2 -0.28,-40.79 -0.28,-44.46 0.01,-13.77 1.18,-29.6 1.18,-45.15 -27.7,-20.02 -63.02,-36.52 -47.04,-58.65 16.49,-22.83 46.18,8.69 78.76,32.22 5.21,3.76 8.3,9.78 8.3,16.21l0 55.36 0 36.52c93.59,-19.94 178.56,-50.5 250.64,-89.17 -12.91,-6.57 -27.12,-13.84 -31.32,-15.9 -32.96,-16.15 -89.91,-43.74 -173.72,-66.47 -2.28,-0.22 -4.42,-0.81 -6.36,-1.7z"/>
  <path class="fil6" d="M1458.74 461.86c10.73,8.57 20.95,17.37 30.62,26.39l-15.77 24.67 -300.31 441.86c-3.89,5.7 -10.16,8.77 -16.57,8.77 -15.91,0 -25.58,-17.93 -16.54,-31.25l299.46 -440.61 19.11 -29.84z"/>
  <path class="fil6" d="M1056.27 298.07c13.28,2.19 26.41,4.58 39.39,7.18l-8.23 33.69 -122.85 574.3c-2,9.4 -10.3,15.83 -19.54,15.83 -12.67,0 -22.23,-11.75 -19.57,-24.18l122.68 -573.56 8.12 -33.26z"/>
  <path class="fil5" d="M1068.23 1142.96c-0.2,-20.2 -0.28,-40.79 -0.28,-44.46 0.01,-13.77 1.18,-29.6 1.18,-45.15 -27.7,-20.02 -63.02,-36.52 -47.04,-58.65 16.49,-22.83 46.18,8.69 78.76,32.22 5.21,3.76 8.3,9.78 8.3,16.21l0 55.36 0 36.52 -40.92 7.94z"/>
  <path class="fil6" d="M168.11 900.97c-8.85,-11.56 -16.85,-23.39 -24.01,-35.45 8.72,-12.39 18.87,-26.58 22.02,-30.78 118.41,-157.48 389.65,-261.74 687.19,-261.74 288.33,0 551.97,97.92 675.78,247.28 6.24,7.53 21.15,28.53 33.11,45.84 -7.2,12.08 -15.24,23.93 -24.14,35.51 -10.7,-15.84 -30.65,-44.64 -36.69,-52.17 -114.46,-142.62 -368.38,-236.48 -648.04,-236.48 -284.8,0 -542.9,97.33 -654.2,244.39 -4.29,5.67 -22.59,31.36 -31.02,43.6z"/>
  <path class="fil6" d="M610.27 305.4c12.98,-2.61 26.12,-5.02 39.41,-7.22l8.86 32.41 122.82 574.3c2.67,12.43 -6.91,24.18 -19.57,24.18 -9.23,0 -17.53,-6.43 -19.54,-15.83l-122.96 -574.93 -9.02 -32.91z"/>
  <path class="fil8" d="M347.02 1045.91c-14.04,-7.53 -27.57,-15.37 -40.59,-23.5 19.32,-10.54 54.81,-29.69 64.26,-34.32 282.58,-138.59 700.07,-136.46 978.36,6.55 6.26,3.22 38.9,20.22 52.04,27.22 -13.25,8.29 -27.02,16.29 -41.32,23.96 -12.91,-6.57 -27.1,-13.83 -31.3,-15.89 -63.25,-31 -214.89,-104.15 -475.13,-104.15 -170.69,0 -332.89,34.11 -461.78,96.6 -6.93,3.36 -26.61,13.85 -44.54,23.51z"/>
  <path class="fil2" d="M257.88 1318.68c-11.04,0 -20,-8.97 -20,-20l0 -189.96c0,-26.33 40,-26.32 40,0l0 189.96c0,11.04 -8.95,20 -20,20z"/>
  <path class="fil2" d="M414.96 1439.23c-11.04,0 -20,-8.97 -20,-20l0 -189.96c0,-26.33 40,-26.32 40,0l0 189.96c0,11.04 -8.96,20 -20,20z"/>
  <path class="fil2" d="M1448.78 1318.68c-11.04,0 -20,-8.97 -20,-20l0 -189.96c0,-26.33 40,-26.32 40,0l0 189.96c0.02,11.04 -8.96,20 -20,20z"/>
  <path class="fil2" d="M1291.7 1439.23c-11.04,0 -20,-8.97 -20,-20l0 -189.96c0,-26.33 40,-26.32 40,0l0 189.96c0,11.04 -8.96,20 -20,20z"/>
  <polygon class="fil9" points="818.55,54.64 818.55,122.6 871.2,85.03 "/>
  <path class="fil5" d="M778.55 171.76l0 -151.75c0,-15.41 16.73,-24.98 30,-17.32l109.57 63.25c12.59,7.26 13.46,25.16 1.62,33.61l-101.19 72.21 -40 0z"/>
  <polygon class="fil9" points="1226.13,105.59 1226.13,173.54 1278.77,135.98 "/>
  <path class="fil10" d="M1186.13 222.72l0 -151.76c0,-15.39 16.73,-24.98 30,-17.32l109.57 63.26c12.59,7.27 13.45,25.17 1.62,33.61l-101.18 72.21 -40.01 0z"/>
  <polygon class="fil9" points="410.97,148.28 410.97,216.24 463.61,178.67 "/>
  <path class="fil11" d="M370.98 265.39l0 -151.75c0,-15.4 16.71,-24.98 30,-17.32l109.55 63.26c12.58,7.26 13.43,25.18 1.61,33.61l-101.18 72.19 -39.98 0z"/>
 </g>
</svg>
